<?xml version="1.0" encoding="UTF-8" standalone="no"?>
<!-- Created with sK1/UniConvertor (http://sk1project.org/) -->

<svg
   xmlns:dc="http://purl.org/dc/elements/1.1/"
   xmlns:cc="http://creativecommons.org/ns#"
   xmlns:rdf="http://www.w3.org/1999/02/22-rdf-syntax-ns#"
   xmlns:svg="http://www.w3.org/2000/svg"
   xmlns="http://www.w3.org/2000/svg"
   xmlns:sodipodi="http://sodipodi.sourceforge.net/DTD/sodipodi-0.dtd"
   xmlns:inkscape="http://www.inkscape.org/namespaces/inkscape"
   width="364.39124"
   height="400.93872"
   viewBox="0 0 291.513 320.75096"
   id="svg2"
   version="1.1"
   inkscape:version="0.48.4 r9939"
   sodipodi:docname="uerj.svg"
   style="fill-rule:evenodd"
   inkscape:export-filename="UERJ.png"
   inkscape:export-xdpi="44.894642"
   inkscape:export-ydpi="44.894642">
  <metadata
     id="metadata124">
    <rdf:RDF>
      <cc:Work
         rdf:about="">
        <dc:format>image/svg+xml</dc:format>
        <dc:type
           rdf:resource="http://purl.org/dc/dcmitype/StillImage" />
        <dc:title></dc:title>
      </cc:Work>
    </rdf:RDF>
  </metadata>
  <sodipodi:namedview
     pagecolor="#ffffff"
     bordercolor="#666666"
     borderopacity="1"
     objecttolerance="10"
     gridtolerance="10"
     guidetolerance="10"
     inkscape:pageopacity="0"
     inkscape:pageshadow="2"
     inkscape:window-width="1366"
     inkscape:window-height="719"
     id="namedview122"
     showgrid="false"
     fit-margin-top="0"
     fit-margin-left="0"
     fit-margin-right="0"
     fit-margin-bottom="0"
     inkscape:zoom="0.22425732"
     inkscape:cx="-252.45416"
     inkscape:cy="330.80999"
     inkscape:window-x="0"
     inkscape:window-y="25"
     inkscape:window-maximized="1"
     inkscape:current-layer="svg2" />
  <defs
     id="defs4">
    <marker
       id="ArrowEnd"
       viewBox="0 0 10 10"
       refX="0"
       refY="5"
       markerUnits="strokeWidth"
       markerWidth="4"
       markerHeight="3"
       orient="auto">
      <path
         d="M 0,0 10,5 0,10 z"
         id="path7"
         inkscape:connector-curvature="0" />
    </marker>
    <marker
       id="ArrowStart"
       viewBox="0 0 10 10"
       refX="10"
       refY="5"
       markerUnits="strokeWidth"
       markerWidth="4"
       markerHeight="3"
       orient="auto">
      <path
         d="M 10,0 0,5 10,10 z"
         id="path10"
         inkscape:connector-curvature="0" />
    </marker>
  </defs>
  <g
     id="g12"
     transform="translate(-506.736,-364.84204)"
     style="fill:#f2f2f2">
    <g
       id="g14"
       style="fill:#f2f2f2">
      <g
         id="g16"
         style="fill:#f2f2f2">
        <path
           style="fill:#f2f2f2;stroke:none"
           d="m 572.299,419.371 -10.853,-13.916 c -2.289,-2.936 -3.198,-7.21 1.348,-10.756 4.102,-3.198 7.902,-2.403 10.785,1.293 l 10.853,13.918 -3.731,2.909 -10.641,-13.644 c -1.887,-2.42 -3.568,-2.638 -4.927,-1.579 -1.631,1.272 -1.439,3.046 0.256,5.221 l 10.642,13.644 -3.732,2.91 z"
           id="path18"
           inkscape:connector-curvature="0" />
        <path
           style="fill:#f2f2f2;stroke:none"
           d="m 552.15,404.089 18.141,17.037 -4.376,4.659 -16.682,-7.412 -0.043,0.045 12.564,11.799 -3.025,3.221 -18.141,-17.037 4.268,-4.546 17.493,7.959 0.043,-0.045 -13.267,-12.46 3.025,-3.22 z"
           id="path20"
           inkscape:connector-curvature="0" />
        <path
           style="fill:#f2f2f2;stroke:none"
           d="m 537.067,421.145 19.965,14.859 -2.826,3.796 -19.964,-14.859 2.825,-3.796 z"
           id="path22"
           inkscape:connector-curvature="0" />
        <path
           style="fill:#f2f2f2;stroke:none"
           d="m 553.182,440.766 -2.523,4.224 -17.336,-6.266 -0.032,0.054 13.511,12.669 -2.394,4.008 -18.296,-17.9 2.844,-4.762 24.226,7.973 z"
           id="path24"
           inkscape:connector-curvature="0" />
        <path
           style="fill:#f2f2f2;stroke:none"
           d="m 521.225,446.613 22.829,9.909 -4.915,11.326 -3.51,-1.524 3.032,-6.985 -5.628,-2.443 -2.795,6.439 -3.51,-1.523 2.795,-6.439 -6.672,-2.896 -3.131,7.215 -3.51,-1.523 5.015,-11.556 z"
           id="path26"
           inkscape:connector-curvature="0" />
        <path
           style="fill:#f2f2f2;stroke:none"
           d="m 513.146,467.589 1.307,-4.548 23.918,6.876 -2.415,8.403 c -0.892,3.102 -3.65,4.461 -7.725,3.289 -3.048,-0.876 -5.022,-2.618 -4.703,-5.721 l -0.066,-0.02 c -0.419,0.956 -1.532,3.832 -5.839,2.594 -1.524,-0.438 -6.055,-1.643 -7.17,-1.507 l 1.281,-4.458 c 1.631,-0.183 3.22,0.404 4.777,0.852 2.848,0.819 5.198,1.755 6.202,-1.739 l 0.338,-1.174 -9.905,-2.847 m 13.582,3.904 -0.58,2.018 c -0.519,1.807 1.321,2.89 2.845,3.329 2.286,0.657 3.398,0.03 3.813,-1.415 l 0.581,-2.017 -6.659,-1.915 z"
           id="path28"
           inkscape:connector-curvature="0" />
        <path
           style="fill:#f2f2f2;stroke:none"
           d="m 508.1,488.218 c 0.84,-5.799 4.75,-6.341 8.978,-5.477 l -0.678,4.683 c -2.354,-0.34 -4.346,-0.534 -4.719,2.04 -0.229,1.582 0.785,2.521 2.456,2.763 4.435,0.642 6.073,-8.747 13.408,-7.685 3.855,0.558 6.682,2.677 5.856,8.384 -0.66,4.559 -3.239,6.497 -8.346,5.441 l 0.66,-4.559 c 1.843,0.267 3.759,0.26 4.033,-1.633 0.22,-1.519 -0.571,-2.552 -2.276,-2.799 -4.674,-0.677 -5.63,8.81 -13.374,7.69 -6.379,-0.925 -6.514,-5.281 -5.998,-8.848 z"
           id="path30"
           inkscape:connector-curvature="0" />
        <path
           style="fill:#f2f2f2;stroke:none"
           d="m 507.152,501.181 24.864,1.068 -0.202,4.727 -24.864,-1.067 0.202,-4.728 z"
           id="path32"
           inkscape:connector-curvature="0" />
        <path
           style="fill:#f2f2f2;stroke:none"
           d="m 531.572,510.233 0.502,7.881 c 0.394,6.192 -4.073,7.638 -11.813,8.13 -3.819,0.243 -12.523,1.331 -13.036,-6.738 l -0.489,-7.692 24.836,-1.581 m -20.717,6.06 0.145,2.283 c 0.183,2.877 2.592,3.288 8.819,2.892 4.575,-0.291 8.6,-0.547 8.391,-3.83 l -0.156,-2.439 -17.199,1.094 z"
           id="path34"
           inkscape:connector-curvature="0" />
        <path
           style="fill:#f2f2f2;stroke:none"
           d="m 508.215,531.601 25.649,0.889 1.312,6.097 -23.037,11.241 -1.048,-4.87 5.127,-2.386 -1.358,-6.311 -5.662,-0.096 -0.983,-4.564 m 21.565,4.685 -0.013,-0.061 -10.969,0.15 0.95,4.411 10.032,-4.5 z"
           id="path36"
           inkscape:connector-curvature="0" />
        <path
           style="fill:#f2f2f2;stroke:none"
           d="m 536.919,545.639 2.796,7.384 c 2.197,5.804 -1.648,8.498 -8.901,11.244 -3.578,1.355 -11.578,4.953 -14.44,-2.608 l -2.729,-7.21 23.274,-8.81 m -18.021,11.881 0.81,2.139 c 1.021,2.696 3.445,2.383 9.28,0.174 4.287,-1.624 8.059,-3.052 6.894,-6.129 l -0.866,-2.286 -16.118,6.102 z"
           id="path38"
           inkscape:connector-curvature="0" />
        <path
           style="fill:#f2f2f2;stroke:none"
           d="m 521.701,574.199 21.867,-11.882 5.895,10.847 -3.362,1.827 -3.636,-6.69 -5.391,2.929 3.352,6.168 -3.362,1.827 -3.352,-6.168 -6.39,3.473 3.755,6.911 -3.362,1.827 -6.014,-11.069 z"
           id="path40"
           inkscape:connector-curvature="0" />
        <path
           style="fill:#f2f2f2;stroke:none"
           d="m 558.326,585.804 5.327,5.829 c 4.186,4.579 1.61,8.505 -4.115,13.737 -2.824,2.582 -8.927,8.882 -14.382,2.914 l -5.2,-5.69 18.37,-16.79 m -12.354,17.702 1.544,1.688 c 1.945,2.128 4.081,0.94 8.686,-3.269 3.384,-3.093 6.36,-5.814 4.141,-8.242 l -1.649,-1.805 -12.722,11.628 z"
           id="path42"
           inkscape:connector-curvature="0" />
        <path
           style="fill:#f2f2f2;stroke:none"
           d="m 562.515,608.376 c 4.154,-5.108 8.112,-9.976 14.166,-5.053 6.054,4.923 2.096,9.79 -2.057,14.898 -4.11,5.055 -8.112,9.976 -14.166,5.053 -6.053,-4.922 -2.052,-9.843 2.057,-14.898 m 8.389,6.821 c 4.023,-4.949 5.495,-7.305 3.429,-8.986 -2.067,-1.68 -4.074,0.242 -8.097,5.19 -4.023,4.947 -5.495,7.305 -3.429,8.985 2.067,1.68 4.074,-0.242 8.097,-5.189 z"
           id="path44"
           inkscape:connector-curvature="0" />
        <path
           style="fill:#f2f2f2;stroke:none"
           d="m 585.351,639.284 10.589,-22.523 11.173,5.254 -1.628,3.463 -6.891,-3.241 -2.61,5.553 6.352,2.987 -1.628,3.462 -6.352,-2.987 -3.095,6.583 7.118,3.346 -1.627,3.462 -11.401,-5.359 z"
           id="path46"
           inkscape:connector-curvature="0" />
        <path
           style="fill:#f2f2f2;stroke:none"
           d="m 607.379,648.842 c -5.58,-1.788 -5.468,-5.733 -3.915,-9.761 l 4.506,1.444 c -0.725,2.265 -1.245,4.198 1.231,4.991 1.522,0.487 2.615,-0.357 3.131,-1.966 1.366,-4.267 -7.621,-7.435 -5.36,-14.493 1.188,-3.709 3.746,-6.147 9.237,-4.389 4.387,1.405 5.871,4.27 3.985,9.131 l -4.387,-1.405 c 0.568,-1.773 0.878,-3.664 -0.943,-4.247 -1.462,-0.469 -2.612,0.14 -3.137,1.782 -1.441,4.497 7.758,7.009 5.37,14.46 -1.966,6.139 -6.286,5.552 -9.718,4.453 z"
           id="path48"
           inkscape:connector-curvature="0" />
        <path
           style="fill:#f2f2f2;stroke:none"
           d="m 638.184,630.057 -0.743,4.069 -5.179,-0.946 -3.726,20.413 -4.655,-0.849 3.726,-20.413 -5.178,-0.946 0.742,-4.069 15.013,2.741 z"
           id="path50"
           inkscape:connector-curvature="0" />
        <path
           style="fill:#f2f2f2;stroke:none"
           d="m 634.355,654.718 7.75,-24.467 6.224,0.375 4.638,25.21 -4.974,-0.299 -0.92,-5.58 -6.444,-0.387 -1.613,5.428 -4.661,-0.28 m 10.309,-19.513 -0.063,-0.003 -2.803,10.605 4.504,0.27 -1.638,-10.872 z"
           id="path52"
           inkscape:connector-curvature="0" />
        <path
           style="fill:#f2f2f2;stroke:none"
           d="m 655.635,630.848 7.867,-0.68 c 6.181,-0.535 7.728,3.898 8.396,11.625 0.33,3.812 1.614,12.489 -6.439,13.185 l -7.68,0.664 -2.144,-24.794 m 6.527,20.575 2.279,-0.197 c 2.873,-0.248 3.23,-2.667 2.692,-8.883 -0.395,-4.567 -0.742,-8.585 -4.019,-8.302 l -2.436,0.211 1.484,17.171 z"
           id="path54"
           inkscape:connector-curvature="0" />
        <path
           style="fill:#f2f2f2;stroke:none"
           d="m 676.096,641.259 c -1.534,-6.402 -2.994,-12.503 4.593,-14.321 7.589,-1.817 9.05,4.283 10.584,10.686 1.517,6.335 2.996,12.504 -4.593,14.321 -7.588,1.818 -9.065,-4.35 -10.584,-10.686 m 10.514,-2.518 c -1.485,-6.202 -2.463,-8.802 -5.053,-8.182 -2.591,0.621 -2.283,3.383 -0.798,9.583 1.486,6.202 2.463,8.803 5.053,8.183 2.591,-0.62 2.284,-3.383 0.798,-9.584 z"
           id="path56"
           inkscape:connector-curvature="0" />
        <path
           style="fill:#f2f2f2;stroke:none"
           d="m 703.07,619.872 6.954,-3.743 c 5.464,-2.942 8.641,0.515 12.318,7.344 1.813,3.368 6.432,10.825 -0.686,14.658 l -6.787,3.653 -11.799,-21.912 m 14.15,16.301 2.016,-1.084 c 2.537,-1.367 1.907,-3.729 -1.05,-9.222 -2.174,-4.037 -4.086,-7.588 -6.983,-6.027 l -2.152,1.157 8.169,15.176 z"
           id="path58"
           inkscape:connector-curvature="0" />
        <path
           style="fill:#f2f2f2;stroke:none"
           d="m 725.984,621.314 c -3.946,-5.271 -7.704,-10.294 -1.456,-14.969 6.247,-4.674 10.006,0.349 13.95,5.62 3.903,5.217 7.702,10.295 1.455,14.969 -6.247,4.675 -10.047,-0.403 -13.949,-5.62 m 8.655,-6.476 c -3.82,-5.106 -5.749,-7.107 -7.881,-5.512 -2.133,1.596 -0.756,4.011 3.063,9.117 3.82,5.105 5.749,7.106 7.881,5.511 2.134,-1.596 0.757,-4.01 -3.063,-9.116 z"
           id="path60"
           inkscape:connector-curvature="0" />
        <path
           style="fill:#f2f2f2;stroke:none"
           d="m 764.528,603.036 -2.974,3.68 -19.355,-15.645 5.497,-6.799 c 2.029,-2.511 5.098,-2.689 8.396,-0.023 2.465,1.993 3.606,4.366 2.105,7.1 l 0.053,0.044 c 0.757,-0.718 2.902,-2.932 6.386,-0.116 1.234,0.997 4.938,3.871 6.019,4.18 l -2.915,3.607 c -1.574,-0.467 -2.809,-1.626 -4.069,-2.644 -2.305,-1.863 -4.104,-3.64 -6.39,-0.813 l -0.768,0.95 8.015,6.479 m -10.991,-8.884 1.32,-1.633 c 1.182,-1.462 -0.091,-3.176 -1.324,-4.173 -1.85,-1.496 -3.118,-1.352 -4.064,-0.183 l -1.32,1.633 5.388,4.356 z"
           id="path62"
           inkscape:connector-curvature="0" />
        <path
           style="fill:#f2f2f2;stroke:none"
           d="m 773.233,591.464 -20.833,-13.612 2.587,-3.961 20.834,13.612 -2.588,3.961 z"
           id="path64"
           inkscape:connector-curvature="0" />
        <path
           style="fill:#f2f2f2;stroke:none"
           d="m 767.798,577.154 c -5.869,-2.984 -11.461,-5.827 -7.926,-12.783 3.537,-6.955 9.129,-4.112 14.998,-1.129 5.806,2.952 11.461,5.827 7.925,12.782 -3.535,6.956 -9.191,4.082 -14.997,1.13 m 4.898,-9.638 c -5.684,-2.89 -8.299,-3.832 -9.504,-1.457 -1.209,2.374 1.094,3.931 6.779,6.82 5.684,2.89 8.299,3.832 9.506,1.458 1.206,-2.374 -1.095,-3.931 -6.781,-6.821 z"
           id="path66"
           inkscape:connector-curvature="0" />
        <path
           style="fill:#f2f2f2;stroke:none"
           d="m 769.012,542.749 1.657,-7.721 c 1.303,-6.066 5.994,-6.244 13.578,-4.616 3.74,0.803 12.412,2.12 10.715,10.025 l -1.617,7.536 -24.333,-5.224 m 21.584,-0.205 0.481,-2.237 c 0.604,-2.818 -1.602,-3.869 -7.702,-5.179 -4.482,-0.962 -8.426,-1.809 -9.117,1.408 l -0.513,2.39 16.851,3.618 z"
           id="path68"
           inkscape:connector-curvature="0" />
        <path
           style="fill:#f2f2f2;stroke:none"
           d="m 797.29,527.019 -24.816,-1.897 0.942,-12.311 3.815,0.292 -0.58,7.593 6.118,0.468 0.535,-6.999 3.814,0.291 -0.535,6.999 7.252,0.554 0.6,-7.842 3.814,0.292 -0.959,12.56 z"
           id="path70"
           inkscape:connector-curvature="0" />
        <path
           style="fill:#f2f2f2;stroke:none"
           d="m 770.982,485.568 18.879,-2.871 c 4.293,-0.653 6.615,2.227 7.119,5.541 0.995,6.537 -1.962,7.272 -7.551,8.122 l -0.726,-4.771 c 1.976,-0.3 4.969,-0.343 4.597,-2.791 -0.16,-1.053 -1.331,-1.636 -2.386,-1.475 l -19.22,2.924 -0.712,-4.679 z"
           id="path72"
           inkscape:connector-curvature="0" />
        <path
           style="fill:#f2f2f2;stroke:none"
           d="m 794.865,477.561 -25.644,1.034 -1.765,-5.981 22.13,-12.936 1.411,4.779 -4.935,2.763 1.828,6.191 5.652,-0.329 1.323,4.479 m -21.856,-3.058 0.017,0.06 10.928,-0.97 -1.278,-4.328 -9.667,5.238 z"
           id="path74"
           inkscape:connector-curvature="0" />
        <path
           style="fill:#f2f2f2;stroke:none"
           d="m 787.765,455.111 -22.478,10.683 -2.744,-5.774 12.984,-12.832 -0.026,-0.057 -15.567,7.398 -1.896,-3.99 22.476,-10.683 2.678,5.633 -13.789,13.387 0.028,0.057 16.438,-7.812 1.896,3.99 z"
           id="path76"
           inkscape:connector-curvature="0" />
        <path
           style="fill:#f2f2f2;stroke:none"
           d="m 777.217,434.401 -20.74,13.757 -6.825,-10.289 3.188,-2.114 4.211,6.345 5.112,-3.392 -3.88,-5.849 3.188,-2.115 3.881,5.849 6.06,-4.021 -4.348,-6.554 3.189,-2.115 6.964,10.498 z"
           id="path78"
           inkscape:connector-curvature="0" />
        <path
           style="fill:#f2f2f2;stroke:none"
           d="m 767.326,420.263 -19.35,15.65 -2.975,-3.679 19.351,-15.65 2.974,3.679 z"
           id="path80"
           inkscape:connector-curvature="0" />
        <path
           style="fill:#f2f2f2;stroke:none"
           d="m 757.447,408.894 3.33,3.361 -17.674,17.52 -6.155,-6.209 c -2.272,-2.292 -2.113,-5.363 0.899,-8.347 2.251,-2.233 4.735,-3.105 7.288,-1.313 l 0.049,-0.049 c -0.63,-0.831 -2.596,-3.206 0.588,-6.361 1.125,-1.116 4.387,-4.483 4.813,-5.522 l 3.265,3.293 c -0.635,1.513 -1.924,2.613 -3.074,3.754 -2.104,2.086 -4.068,3.68 -1.509,6.262 l 0.86,0.868 7.32,-7.257 m -10.038,9.95 -1.477,-1.491 c -1.324,-1.335 -3.168,-0.258 -4.294,0.858 -1.69,1.675 -1.686,2.951 -0.627,4.019 l 1.478,1.491 4.92,-4.877 z"
           id="path82"
           inkscape:connector-curvature="0" />
        <path
           style="fill:#f2f2f2;stroke:none"
           d="m 739.15,408.442 c -3.976,5.246 -7.767,10.246 -13.985,5.532 -6.218,-4.714 -2.427,-9.713 1.549,-14.96 3.937,-5.191 7.769,-10.245 13.987,-5.532 6.218,4.715 2.385,9.769 -1.551,14.96 m -8.615,-6.531 c -3.852,5.082 -5.244,7.487 -3.121,9.096 2.123,1.609 4.063,-0.38 7.915,-5.461 3.853,-5.082 5.246,-7.488 3.123,-9.097 -2.123,-1.609 -4.064,0.38 -7.917,5.462 z"
           id="path84"
           inkscape:connector-curvature="0" />
        <path
           style="fill:#f2f2f2;stroke:none"
           d="m 592.317,561.044 c 0,2.472 0.358,4.206 1.073,5.201 0.714,0.997 1.925,1.493 3.631,1.493 2.023,0 3.475,-0.49 4.357,-1.47 0.881,-0.979 1.321,-2.588 1.321,-4.828 l 0,-14.529 c 0,-1.259 -0.145,-2.029 -0.436,-2.308 -0.291,-0.281 -0.958,-0.421 -2.004,-0.421 l -1.526,0 0,-4.506 13.859,0 0,4.506 -1.368,0 c -1.042,0 -1.711,0.144 -2.008,0.431 -0.297,0.288 -0.444,1.009 -0.444,2.158 l 0,15.463 c 0,3.431 -1.153,6.037 -3.455,7.821 -2.304,1.784 -5.681,2.677 -10.129,2.677 -4.043,0 -7.172,-0.879 -9.389,-2.642 -2.217,-1.761 -3.325,-4.249 -3.325,-7.46 l 0,-15.719 c 0,-1.212 -0.152,-1.971 -0.456,-2.272 -0.304,-0.305 -0.984,-0.457 -2.041,-0.457 l -1.519,0 0,-4.506 18.022,0 0,4.506 -1.656,0 c -1.076,0 -1.763,0.152 -2.06,0.457 -0.297,0.301 -0.447,1.06 -0.447,2.272 l 0,14.133 z"
           id="path86"
           inkscape:connector-curvature="0" />
        <path
           style="fill:#f2f2f2;stroke:none"
           d="m 650.049,539.676 0,11.951 -4.724,0 c -0.304,-1.562 -0.627,-2.779 -0.968,-3.652 -0.341,-0.873 -0.757,-1.576 -1.248,-2.106 -0.567,-0.61 -1.256,-1.043 -2.067,-1.301 -0.812,-0.256 -2.123,-0.386 -3.934,-0.386 l -0.899,0 -3.861,0 0,8.815 1.163,0 c 1.359,0 2.314,-0.347 2.862,-1.045 0.548,-0.698 0.823,-1.937 0.823,-3.721 l 0,-0.278 3.722,0 0,14.641 -3.722,0 c -0.059,-2.248 -0.333,-3.706 -0.823,-4.377 -0.49,-0.672 -1.43,-1.009 -2.819,-1.009 l -1.206,0 0,9.99 5.324,0 c 2.043,0 3.452,-0.129 4.228,-0.393 0.776,-0.264 1.373,-0.717 1.795,-1.352 0.463,-0.763 0.829,-1.69 1.098,-2.786 0.268,-1.095 0.445,-2.474 0.532,-4.136 l 4.897,0 0,13.224 -31.538,0 0,-4.557 1.503,0 c 0.985,0 1.635,-0.122 1.947,-0.372 0.312,-0.246 0.468,-0.959 0.468,-2.137 l 0,-0.235 0,-17.516 c 0,-1.254 -0.145,-2.03 -0.435,-2.319 -0.291,-0.293 -0.965,-0.437 -2.024,-0.437 l -1.459,0 0,-4.506 31.365,0 z"
           id="path88"
           inkscape:connector-curvature="0" />
        <path
           style="fill:#f2f2f2;stroke:none"
           d="m 662.186,564.428 0,-17.486 c 0,-1.243 -0.144,-2.007 -0.435,-2.293 -0.292,-0.288 -0.967,-0.432 -2.028,-0.432 l -1.503,0 0,-4.541 20.574,0 c 3.634,0 6.345,0.661 8.135,1.984 1.787,1.321 2.682,3.322 2.682,5.998 0,1.803 -0.552,3.32 -1.654,4.551 -1.104,1.228 -2.664,2.069 -4.681,2.519 2.034,0.265 3.411,0.931 4.129,1.995 0.72,1.066 1.079,3.507 1.079,7.319 0,1.153 0.09,1.951 0.27,2.393 0.18,0.444 0.478,0.666 0.896,0.666 0.401,0 0.7,-0.272 0.894,-0.821 0.194,-0.547 0.291,-1.374 0.291,-2.485 0,-0.106 -0.007,-0.29 -0.021,-0.538 -0.016,-0.25 -0.022,-0.438 -0.022,-0.565 l 3.036,0 c 0,0.143 0.006,0.356 0.021,0.646 0.016,0.289 0.022,0.505 0.022,0.644 0,2.999 -0.572,5.177 -1.716,6.528 -1.145,1.352 -2.991,2.028 -5.539,2.028 -2.709,0 -4.684,-0.611 -5.922,-1.83 -1.238,-1.217 -1.856,-3.155 -1.856,-5.809 l 0,-2.693 c 0,-2.136 -0.267,-3.495 -0.797,-4.076 -0.53,-0.583 -1.632,-0.872 -3.303,-0.872 l -2.671,0 0,7.17 c 0,1.253 0.149,2.028 0.445,2.324 0.297,0.299 0.959,0.446 1.987,0.446 l 1.693,0 0,4.557 -17.972,0 0,-4.557 1.503,0 c 1.046,0 1.718,-0.147 2.017,-0.446 0.297,-0.296 0.446,-1.071 0.446,-2.324 m 9.794,-11.528 2.606,0 c 1.836,0 3.125,-0.314 3.869,-0.943 0.744,-0.629 1.117,-1.679 1.117,-3.155 0,-1.613 -0.344,-2.743 -1.03,-3.397 -0.687,-0.651 -1.895,-0.977 -3.63,-0.977 l -2.932,0 0,8.472 z"
           id="path90"
           inkscape:connector-curvature="0" />
        <path
           style="fill:#f2f2f2;stroke:none"
           d="m 712.908,546.927 c 0,-1.253 -0.145,-2.022 -0.435,-2.312 -0.288,-0.289 -0.96,-0.433 -2.015,-0.433 l -1.663,0 0,-4.506 17.825,0 0,4.506 -1.387,0 c -0.984,0 -1.627,0.125 -1.929,0.374 -0.304,0.252 -0.455,0.963 -0.455,2.133 l 0,0.235 0,14.084 c 0,2.368 -0.197,4.183 -0.587,5.442 -0.392,1.262 -1.044,2.335 -1.956,3.223 -1.044,1.029 -2.345,1.794 -3.903,2.301 -1.558,0.506 -3.388,0.758 -5.49,0.758 -3.304,0 -5.985,-0.847 -8.043,-2.542 -2.058,-1.697 -3.087,-3.875 -3.087,-6.534 0,-2.021 0.551,-3.659 1.652,-4.911 1.1,-1.252 2.534,-1.878 4.301,-1.878 1.32,0 2.362,0.399 3.13,1.198 0.768,0.801 1.151,1.874 1.151,3.223 0,1.275 -0.346,2.303 -1.04,3.086 -0.696,0.784 -1.605,1.176 -2.734,1.176 -0.188,0 -0.384,-0.013 -0.585,-0.036 -0.202,-0.022 -0.42,-0.057 -0.651,-0.105 0.361,0.776 0.838,1.36 1.432,1.747 0.594,0.388 1.295,0.582 2.106,0.582 1.635,0 2.771,-0.478 3.408,-1.433 0.636,-0.953 0.955,-2.875 0.955,-5.761 l 0,-13.617 z"
           id="path92"
           inkscape:connector-curvature="0" />
        <path
           style="fill:#f2f2f2;stroke:none"
           d="m 618.147,476.655 c -1.374,1.57 -4.525,-2.009 -8.471,6.252 -12.008,1.383 -13.391,8.945 -11.576,9.824 0.673,0.259 0.59,0.094 0.59,0.094 0.551,-4.79 9.584,-7.887 12.155,-8.503 3.217,-8.572 6.665,-5.28 7.901,-6.963 0.812,-4.109 2.318,-4.592 2.318,-4.592 0,0 -1.751,-0.138 -2.917,3.888 z"
           id="path94"
           inkscape:connector-curvature="0" />
        <path
           style="fill:#f2f2f2;stroke:none"
           d="m 707.623,493.096 c -0.097,-4.69 -8.359,-6.46 -10.59,-7.087 0,0 -44.858,0 -46.631,0 -2.43,-0.008 1.221,7.075 2.986,7.075 1.801,0 54.235,0.012 54.235,0.012 z"
           id="path96"
           inkscape:connector-curvature="0" />
        <path
           style="fill:#f2f2f2;stroke:none"
           d="m 706.718,495.086 c -1.589,0.009 -107.501,0 -107.501,0 -2.674,-0.079 0.237,2.401 3.291,4.967 1.57,1.37 1.195,0.883 2.686,2.379 5.135,5.753 1.621,17.152 20.833,23.066 0,0 0.455,3.151 2.055,3.161 1.601,0.004 47.037,0.026 48.966,0 1.927,-0.032 2.403,-3.161 2.403,-3.161 19.216,-5.914 15.703,-17.313 20.838,-23.066 1.494,-1.496 1.115,-1.009 2.686,-2.379 3.057,-2.566 5.337,-4.977 3.743,-4.967 M 648.5,522.031 c -6.481,1.312 -12.133,3.671 -15.171,3.677 -2.309,0.008 -3.909,-3.153 -3.909,-3.153 -16.825,-5.216 -17.196,-13.587 -18.941,-18.64 -1.746,-5.052 -5.672,-6.909 -1.072,-6.909 l 47.324,0.138 c 0,0 10.198,1.671 13.27,9.182 3.386,10.104 -9.795,13.334 -21.501,15.705 z"
           id="path98"
           inkscape:connector-curvature="0" />
        <path
           style="fill:#f2f2f2;stroke:none"
           d="m 649.565,472.219 c -1.072,0 -1.997,0.572 -1.747,2.852 -6.806,0 -13.682,0.005 -15.649,0.013 -1.081,0.004 -0.996,1.714 -0.996,1.714 l 57.128,-0.006 c -0.867,-4.116 -2.505,-4.573 -2.505,-4.573 l -36.231,0 z"
           id="path100"
           inkscape:connector-curvature="0" />
        <path
           style="fill:#f2f2f2;stroke:none"
           d="m 650.092,478.704 c -1.94,-0.005 -1.775,1.696 -1.683,3.001 -3.018,0 -22.688,0 -24.312,0 -1.375,0 -1.194,1.957 -1.194,1.957 l 72.365,0.008 c -1.121,-4.359 -4.77,-4.958 -4.77,-4.958 l -40.406,-0.008 z"
           id="path102"
           inkscape:connector-curvature="0" />
        <path
           style="fill:#f2f2f2;stroke:none"
           d="m 676.143,532.067 c 0,0.77 -0.387,1.388 -0.868,1.388 l -45.471,0 c -0.479,0 -0.868,-0.618 -0.868,-1.388 l 0,0 c 0,-0.767 0.389,-1.386 0.868,-1.386 l 45.471,0 c 0.481,0 0.868,0.619 0.868,1.386 l 0,0 z"
           id="path104"
           inkscape:connector-curvature="0" />
        <path
           style="fill:#f2f2f2;stroke:none"
           d="m 641.518,578.642 c -1.735,0.003 -2.228,0.005 -3.965,0.005 l 4.678,41.849 c 1.321,0.45 1.087,0.372 2.59,0.787 l -3.303,-42.641 z"
           id="path106"
           inkscape:connector-curvature="0" />
        <path
           style="fill:#f2f2f2;stroke:none"
           d="m 644.805,578.639 1.582,43.067 c 0.893,0.148 2.752,0.451 5.004,0.542 l -0.555,-43.611 c -2.257,0 -4.412,0.001 -6.031,0.002 m 9.374,0 -0.549,43.367 -0.003,0.256 c 2.193,-0.066 4.121,-0.34 5.022,-0.488 l 1.553,-43.122 c -1.616,-0.007 -3.767,-0.011 -6.023,-0.013 z"
           id="path108"
           inkscape:connector-curvature="0" />
        <path
           style="fill:#f2f2f2;stroke:none"
           d="m 667.526,578.725 c -1.724,-0.021 -2.206,-0.037 -3.93,-0.05 l -3.163,42.633 c 1.312,-0.311 1.295,-0.311 2.486,-0.725 l 4.607,-41.858 z"
           id="path110"
           inkscape:connector-curvature="0" />
        <path
           style="fill:#f2f2f2;stroke:none"
           d="m 647.39,665.034 c 0,0 1.13,0.782 5.067,0.782 3.938,0 5.231,-0.782 5.231,-0.782 l -1.925,17.743 c 0,0 -0.461,2.816 -3.21,2.816 -2.749,0 -3.147,-2.807 -3.147,-2.807 l -2.016,-17.752 z"
           id="path112"
           inkscape:connector-curvature="0" />
        <path
           style="fill:#f2f2f2;stroke:none"
           d="m 714.598,420.134 c 0.088,1.091 0.233,16.716 -23.026,15.351 -0.914,-0.054 -2.026,-0.408 -2.864,-0.313 42.775,-28.233 -3.061,-37.368 -7.185,-50.157 -0.414,5.503 1.857,7.242 3.979,12.231 2.045,4.804 1.632,7.004 1.632,7.004 0,0 -22.86,-15.511 -19.161,-30.055 0.219,-0.862 -8.546,6.009 -6.683,18.212 1.483,9.724 2.189,25.392 -23.63,28.749 -14.118,1.836 -52.387,9.997 -50.083,29.778 2.305,19.78 41.918,17.371 41.918,17.371 10.897,0 6.199,-8.99 -0.238,-12.035 -11.148,-5.002 -11.159,-17.145 16.82,-22.434 -13.929,8.526 -11.871,13.182 -1.379,18.651 11.891,6.089 1.18,15.755 6.336,15.767 4.006,0.169 11.037,0.196 14.764,0.194 6.43,-0.102 -24.156,-14.31 7.576,-32.395 -15.014,21.156 4.446,30.743 7.471,30.873 3.023,0.129 -10.165,-12.282 15.841,-17.853 26.839,-5.749 17.912,-28.939 17.912,-28.939 z"
           id="path114"
           inkscape:connector-curvature="0" />
        <path
           style="fill:#f2f2f2;stroke:none"
           d="m 611.047,411.427 c -7.16,7.346 -6.585,13.314 -6.585,13.314 0,0 6.271,-5.624 12.179,-7.682 5.732,-1.994 14.619,-2.541 22.45,-4.808 8.779,-2.54 17.429,-12.087 12.112,-24.975 -4.352,-10.548 -10.919,-14.331 -9.128,-22.434 -4.32,3.318 -6.42,7.628 -6.818,13.244 -0.533,7.553 4.772,12.705 -1.339,19.233 -6.896,7.368 -14.345,6.394 -22.871,14.108 z"
           id="path116"
           inkscape:connector-curvature="0" />
        <path
           style="fill:#f2f2f2;stroke:none"
           d="m 599.097,421.5 c 0,0 0.636,-16.214 18.905,-23.607 19.57,-7.92 3.353,-30.613 -9.164,-28.198 6.175,4.263 14.003,14.687 3.03,21.409 -22.433,13.739 -12.771,30.396 -12.771,30.396 z"
           id="path118"
           inkscape:connector-curvature="0" />
      </g>
    </g>
  </g>
  <g
     id="g120"
     transform="translate(-506.736,-364.84204)" />
</svg>
